<svg width="36" height="36" viewBox="0 0 36 36" fill="none" xmlns="http://www.w3.org/2000/svg">
<g id="Black">
<path id="Vector" d="M21.9008 0.532719C21.7886 0.60981 21.4452 0.918172 21.1509 1.23354C20.6253 1.76617 20.6042 1.80822 20.6042 2.11658C20.6042 2.36888 20.6463 2.48101 20.7724 2.61416C20.9757 2.8174 21.235 2.89449 21.4943 2.82441C21.7746 2.75433 22.9029 1.626 22.987 1.33166C23.0571 1.06534 22.959 0.72895 22.7558 0.560752C22.5595 0.392555 22.132 0.385546 21.9008 0.532719Z" fill="url(#paint0_linear_1_1052)"/>
<path id="Vector_2" d="M27.8788 0.518713C27.6335 0.644861 27.5424 0.820067 27.5424 1.14245C27.5424 1.47183 27.7106 1.71011 28.0049 1.80823C28.4955 1.96942 28.944 1.65405 28.944 1.14245C28.944 0.813059 28.8459 0.644861 28.5936 0.511705C28.3413 0.378548 28.124 0.378548 27.8788 0.518713Z" fill="url(#paint1_linear_1_1052)"/>
<path id="Vector_3" d="M32.8686 1.47883C32.6303 1.59797 32.4341 1.99744 32.4901 2.26376C32.5812 2.71929 33.0718 2.96458 33.5063 2.78937C34.0389 2.56511 34.06 1.74515 33.5344 1.49285C33.254 1.3667 33.0998 1.35969 32.8686 1.47883Z" fill="url(#paint2_linear_1_1052)"/>
<path id="Vector_4" d="M18.0462 2.46703C17.9341 2.52309 15.7195 4.68863 13.1334 7.28168C8.62012 11.823 8.42389 12.0263 8.21365 12.4958C7.72307 13.6031 7.77213 14.8085 8.35381 15.8247C8.48697 16.056 9.04763 16.6937 9.78349 17.4366C10.4773 18.1444 11.0099 18.7471 11.038 18.8523C11.066 18.9644 11.045 19.1116 10.9819 19.2307C10.7997 19.5741 9.65033 20.6464 5.39634 24.4378C3.13969 26.4492 1.14234 28.2783 0.960128 28.4956C0.301354 29.2735 0 30.1495 0 31.2428C0 32.0207 0.112132 32.4903 0.448527 33.1701C0.770905 33.8148 1.21242 34.3054 1.86419 34.7399C2.62108 35.2515 3.19575 35.4127 4.20494 35.4127C4.87072 35.4127 5.10199 35.3847 5.52949 35.2445C6.6438 34.8801 6.66483 34.8521 11.1711 29.708C13.4208 27.136 15.4391 24.8723 15.6494 24.6761C16.0629 24.3047 16.2731 24.2206 16.5394 24.3187C16.6305 24.3537 17.2683 24.9354 17.9551 25.6082C19.0554 26.6875 19.2726 26.8697 19.7282 27.0869C20.7374 27.5635 21.8236 27.5705 22.8538 27.101C23.3584 26.8767 23.4846 26.7576 28.0539 22.2092C30.633 19.6442 32.7845 17.4576 32.8406 17.3525C32.8966 17.2474 32.9387 17.0582 32.9387 16.932C32.9387 16.7218 32.378 16.1401 25.8113 9.57337C20.2678 4.03687 18.6279 2.43899 18.4667 2.41096C18.3546 2.38993 18.1653 2.41797 18.0462 2.46703ZM18.0392 7.28869C17.1071 8.22779 16.2941 9.06878 16.2311 9.16689C15.8106 9.80464 16.6025 10.5966 17.2402 10.1761C17.3384 10.113 18.1794 9.30005 19.1114 8.36796L20.8144 6.67897L21.7606 7.62508L22.7067 8.56419L20.9266 10.3583C19.1255 12.1734 19.0344 12.2856 19.1185 12.7061C19.1535 12.9233 19.4408 13.2177 19.6441 13.2457C20.0295 13.3088 20.2187 13.1616 21.9848 11.3955L23.7579 9.62243L24.718 10.5826L25.6852 11.5497L23.877 13.3578L22.0759 15.1729V15.4883C22.0759 15.9999 22.4894 16.3293 22.973 16.2102C23.0921 16.1821 23.8 15.5304 24.9493 14.381L26.7364 12.6009L27.7035 13.5681L28.6637 14.5282L26.9116 16.2802C25.0474 18.1444 24.9423 18.2846 25.0895 18.7261C25.1876 19.0345 25.4259 19.1887 25.8043 19.1887C26.0987 19.1887 26.1127 19.1746 27.9068 17.3875L29.7149 15.5794L30.4367 16.3013L31.1516 17.0161L27.7176 20.4501L24.2835 23.8842L17.871 17.4716L11.4585 11.0591L14.8925 7.62508L18.3265 4.19105L19.0273 4.89187L19.7282 5.5927L18.0392 7.28869ZM22.8118 25.3279C22.104 25.9726 21.3681 26.1408 20.5622 25.8395C20.2117 25.7063 19.9945 25.5241 18.8591 24.4098C18.1443 23.709 17.4575 23.0852 17.3454 23.0222C17.002 22.847 16.3712 22.7559 15.9788 22.8329C15.5162 22.9241 15.1728 23.1063 14.7243 23.5057L14.3529 23.8351L12.9092 22.3914L11.4655 20.9477L11.8509 20.5413C12.3275 20.0437 12.5097 19.6092 12.5097 18.9784C12.5097 18.1585 12.3976 17.9762 10.9749 16.5255C9.51017 15.0258 9.363 14.8015 9.363 14.0376C9.35599 13.4209 9.53119 13.0214 10.0288 12.4888L10.4002 12.1033L16.8127 18.5229L23.2323 24.9424L22.8118 25.3279ZM11.8719 23.4567C12.9232 24.5079 13.3156 24.9494 13.2736 25.0125C13.1474 25.2228 6.34946 32.9739 6.07614 33.2262C4.6815 34.5016 2.52997 34.0741 1.72402 32.3641C1.52779 31.9507 1.50677 31.8455 1.50677 31.2078C1.50677 30.57 1.52779 30.4649 1.72402 30.0514C1.85718 29.7711 2.08845 29.4557 2.31972 29.2315C2.8103 28.7549 10.3231 22.006 10.3722 21.999C10.3932 21.992 11.066 22.6507 11.8719 23.4567Z" fill="url(#paint3_linear_1_1052)"/>
<path id="Vector_5" d="M9.22282 25.2228C8.98454 25.2929 8.67618 25.5872 6.54567 27.7878C4.98284 29.4067 4.97583 29.4207 4.97583 29.7221C4.97583 30.2757 5.52948 30.6262 5.99903 30.3809C6.30739 30.2197 10.0147 26.3862 10.0988 26.1339C10.2881 25.5942 9.78348 25.0686 9.22282 25.2228Z" fill="url(#paint4_linear_1_1052)"/>
<path id="Vector_6" d="M3.36392 31.0886C2.71215 31.411 2.97847 32.4342 3.71433 32.4342C4.50626 32.4342 4.69548 31.3129 3.9456 31.0255C3.71433 30.9415 3.64425 30.9415 3.36392 31.0886Z" fill="url(#paint5_linear_1_1052)"/>
<path id="Vector_7" d="M25.9655 2.46706C25.6571 2.60723 23.6388 4.67465 23.5827 4.90592C23.5126 5.17224 23.5897 5.43154 23.7929 5.63478C23.9261 5.76794 24.0382 5.80298 24.2905 5.80298H24.6269L25.8043 4.6256C26.9537 3.47625 26.9817 3.4412 26.9817 3.15387C26.9817 2.61423 26.4421 2.24981 25.9655 2.46706Z" fill="url(#paint6_linear_1_1052)"/>
<path id="Vector_8" d="M30.9413 3.44817C30.661 3.58133 26.6593 7.60405 26.5682 7.84934C26.386 8.33992 26.8555 8.87955 27.3882 8.78144C27.6124 8.73939 27.9348 8.44504 29.7359 6.65794C32.0276 4.37326 32.0907 4.28215 31.8664 3.79858C31.7893 3.63739 31.6562 3.51825 31.502 3.44817C31.2146 3.32903 31.2076 3.32903 30.9413 3.44817Z" fill="url(#paint7_linear_1_1052)"/>
<path id="Vector_9" d="M34.6838 5.58567C34.4105 5.866 34.3965 6.32854 34.6558 6.59485C35.1323 7.06441 35.8822 6.76305 35.8822 6.10428C35.8822 5.66977 35.6019 5.38243 35.1814 5.38243C34.9501 5.38243 34.845 5.42448 34.6838 5.58567Z" fill="url(#paint8_linear_1_1052)"/>
<path id="Vector_10" d="M31.2076 9.0477C29.5327 10.7157 29.5046 10.7507 29.5046 11.038C29.5046 11.2553 29.5537 11.3744 29.7079 11.5426C29.8831 11.7248 29.9602 11.7599 30.2475 11.7599H30.5769L32.1467 10.1971C33.0158 9.34205 33.7656 8.55713 33.8217 8.452C34.102 7.91237 33.7586 7.3447 33.1349 7.3447C32.9317 7.3447 32.7354 7.5129 31.2076 9.0477Z" fill="url(#paint9_linear_1_1052)"/>
<path id="Vector_11" d="M33.184 12.9653C32.4622 13.6872 32.3711 13.8904 32.5463 14.3109C32.6724 14.6193 33.0228 14.7945 33.3662 14.7244C33.6115 14.6753 34.3684 14.0095 34.7048 13.554C35.1253 12.9723 34.845 12.3206 34.1582 12.3206C33.8358 12.3206 33.8148 12.3346 33.184 12.9653Z" fill="url(#paint10_linear_1_1052)"/>
</g>
<defs>
<linearGradient id="paint0_linear_1_1052" x1="21.8069" y1="2.84973" x2="21.8069" y2="0.428107" gradientUnits="userSpaceOnUse">
<stop offset="0.452535" stop-color="#FFA588"/>
<stop offset="1" stop-color="#F36A3E"/>
</linearGradient>
<linearGradient id="paint1_linear_1_1052" x1="28.2432" y1="1.85059" x2="28.2432" y2="0.412697" gradientUnits="userSpaceOnUse">
<stop offset="0.452535" stop-color="#FFA588"/>
<stop offset="1" stop-color="#F36A3E"/>
</linearGradient>
<linearGradient id="paint2_linear_1_1052" x1="33.1989" y1="2.84619" x2="33.1989" y2="1.39369" gradientUnits="userSpaceOnUse">
<stop offset="0.452535" stop-color="#FFA588"/>
<stop offset="1" stop-color="#F36A3E"/>
</linearGradient>
<linearGradient id="paint3_linear_1_1052" x1="16.4693" y1="35.4127" x2="16.4693" y2="2.4039" gradientUnits="userSpaceOnUse">
<stop offset="0.452535" stop-color="#FFA588"/>
<stop offset="1" stop-color="#F36A3E"/>
</linearGradient>
<linearGradient id="paint4_linear_1_1052" x1="7.55759" y1="30.4604" x2="7.55759" y2="25.1955" gradientUnits="userSpaceOnUse">
<stop offset="0.452535" stop-color="#FFA588"/>
<stop offset="1" stop-color="#F36A3E"/>
</linearGradient>
<linearGradient id="paint5_linear_1_1052" x1="3.70622" y1="32.4342" x2="3.70622" y2="30.9687" gradientUnits="userSpaceOnUse">
<stop offset="0.452535" stop-color="#FFA588"/>
<stop offset="1" stop-color="#F36A3E"/>
</linearGradient>
<linearGradient id="paint6_linear_1_1052" x1="25.2695" y1="5.80298" x2="25.2695" y2="2.40326" gradientUnits="userSpaceOnUse">
<stop offset="0.452535" stop-color="#FFA588"/>
<stop offset="1" stop-color="#F36A3E"/>
</linearGradient>
<linearGradient id="paint7_linear_1_1052" x1="29.2401" y1="8.79309" x2="29.2401" y2="3.35882" gradientUnits="userSpaceOnUse">
<stop offset="0.452535" stop-color="#FFA588"/>
<stop offset="1" stop-color="#F36A3E"/>
</linearGradient>
<linearGradient id="paint8_linear_1_1052" x1="35.176" y1="6.82275" x2="35.176" y2="5.38243" gradientUnits="userSpaceOnUse">
<stop offset="0.452535" stop-color="#FFA588"/>
<stop offset="1" stop-color="#F36A3E"/>
</linearGradient>
<linearGradient id="paint9_linear_1_1052" x1="31.7126" y1="11.7599" x2="31.7126" y2="7.3447" gradientUnits="userSpaceOnUse">
<stop offset="0.452535" stop-color="#FFA588"/>
<stop offset="1" stop-color="#F36A3E"/>
</linearGradient>
<linearGradient id="paint10_linear_1_1052" x1="33.6863" y1="14.7397" x2="33.6863" y2="12.3206" gradientUnits="userSpaceOnUse">
<stop offset="0.452535" stop-color="#FFA588"/>
<stop offset="1" stop-color="#F36A3E"/>
</linearGradient>
</defs>
</svg>
