<svg width="47" height="36" viewBox="0 0 47 36" fill="none" xmlns="http://www.w3.org/2000/svg">
<g id="Black">
<path id="Vector" d="M46.5022 3.60694C46.1559 2.68639 45.6455 2.03927 44.889 1.55621C43.9046 0.927315 44.4789 0.963772 34.69 0.963772C26.4415 0.963772 25.8308 0.982001 25.6486 1.12783C25.5392 1.20986 25.4025 1.37392 25.3478 1.48329C25.2019 1.76584 25.2019 35.1609 25.3478 35.4435C25.4025 35.5528 25.5392 35.7169 25.6486 35.7989C25.8217 35.9448 26.2501 35.963 31.0898 35.963H36.3397L36.6952 35.6987C37.1144 35.3797 46.3017 26.1741 46.5205 25.846C46.6572 25.6455 46.6663 24.6703 46.6572 14.8176C46.6572 4.95587 46.639 3.98063 46.5022 3.60694ZM41.3982 24.2966C37.7889 24.2966 37.6795 24.3148 36.7772 24.889C36.0025 25.3903 35.4465 26.1012 35.1548 26.9762C35.0181 27.3681 34.9999 27.8876 34.9999 30.6949V33.9578H31.1263H27.2527L27.2527 18.4634L27.2527 2.96894L35.1822 2.96894C43.8591 2.96894 43.4672 2.94159 44.0596 3.49757C44.2054 3.63429 44.3968 3.90772 44.488 4.10823C44.652 4.45458 44.6611 4.92853 44.6611 14.3893L44.6611 24.2966H41.3982ZM37.0233 30.2483C36.996 27.76 37.0324 27.4866 37.4881 26.9671C38.035 26.3382 38.2173 26.3017 40.8787 26.3017H43.2484L40.1495 29.4006L37.0506 32.4995L37.0233 30.2483Z" fill="url(#paint0_linear_1_1067)"/>
<path id="Vector_2" d="M34.8814 17.9439C34.772 17.7434 31.0898 14.9179 30.625 14.681C29.7227 14.2161 28.8386 15.0911 29.2669 16.0299C29.3216 16.1484 30.0143 16.7317 30.8164 17.3333C31.6093 17.9257 32.2656 18.4361 32.2656 18.4634C32.2656 18.4908 31.5911 19.0103 30.7708 19.6301C29.9414 20.2499 29.2487 20.815 29.2214 20.897C29.1211 21.134 29.1667 21.7993 29.2852 21.9451C29.6315 22.3735 30.151 22.492 30.625 22.2459C31.0898 22.0089 34.772 19.1835 34.8814 18.983C34.9452 18.8736 34.9908 18.6366 34.9908 18.4634C34.9908 18.2903 34.9452 18.0533 34.8814 17.9439Z" fill="url(#paint1_linear_1_1067)"/>
<path id="Vector_3" d="M21.3101 1.46491C21.2554 1.36466 21.1278 1.20971 21.0185 1.12768C20.8362 0.981852 20.2255 0.963623 11.977 0.963623C3.96547 0.963623 3.09049 0.981852 2.68034 1.11857C1.80536 1.41023 1.09444 1.9662 0.593147 2.74093C-0.0448598 3.73439 0.000712061 2.5313 0.000712061 18.4632C0.000712061 31.6244 0.00982644 32.8731 0.155656 33.2832C0.447317 34.1582 1.00329 34.8691 1.77802 35.3704C2.75325 35.9993 2.17905 35.9628 11.977 35.9628C20.2255 35.9628 20.8362 35.9446 21.0185 35.7988C21.1278 35.7167 21.2646 35.5527 21.3192 35.4433C21.4651 35.1608 21.456 1.72923 21.3101 1.46491ZM11.4666 33.9577C3.91989 33.9577 3.49152 33.9486 3.14517 33.7845C2.69857 33.5749 2.33399 33.2012 2.15171 32.7546C2.0241 32.4538 2.00588 30.8679 2.00588 18.4632C2.00588 6.05856 2.0241 4.47266 2.15171 4.17188C2.33399 3.72528 2.69857 3.35159 3.14517 3.14196C3.49152 2.9779 3.91989 2.96879 11.4666 2.96879L19.4143 2.96879L19.4143 18.4632L19.4143 33.9577L11.4666 33.9577Z" fill="url(#paint2_linear_1_1067)"/>
<path id="Vector_4" d="M17.4274 15.0637C17.3271 14.8267 16.8623 14.5442 16.5615 14.5442C16.4248 14.5442 16.1878 14.608 16.042 14.6809C15.6683 14.8723 12.0226 17.6248 11.8312 17.8618C11.7309 17.9803 11.6671 18.2082 11.6671 18.4634C11.6671 18.7186 11.7309 18.9464 11.8312 19.0649C12.0226 19.3019 15.6683 22.0544 16.042 22.2458C16.9443 22.7107 17.8284 21.8357 17.4001 20.8969C17.3454 20.7784 16.6527 20.1951 15.8506 19.5936C15.0577 19.0011 14.4014 18.4907 14.4014 18.4634C14.4014 18.436 15.0577 17.9256 15.8506 17.3332C16.6527 16.7316 17.3454 16.1483 17.4001 16.0298C17.5094 15.7837 17.5185 15.3098 17.4274 15.0637Z" fill="url(#paint3_linear_1_1067)"/>
</g>
<defs>
<linearGradient id="paint0_linear_1_1067" x1="25.2384" y1="18.4632" x2="46.6597" y2="18.4632" gradientUnits="userSpaceOnUse">
<stop offset="0.452535" stop-color="#FFA588"/>
<stop offset="1" stop-color="#F36A3E"/>
</linearGradient>
<linearGradient id="paint1_linear_1_1067" x1="29.1556" y1="18.4625" x2="34.9908" y2="18.4625" gradientUnits="userSpaceOnUse">
<stop offset="0.452535" stop-color="#FFA588"/>
<stop offset="1" stop-color="#F36A3E"/>
</linearGradient>
<linearGradient id="paint2_linear_1_1067" x1="0" y1="18.4634" x2="21.4242" y2="18.4634" gradientUnits="userSpaceOnUse">
<stop offset="0.452535" stop-color="#FFA588"/>
<stop offset="1" stop-color="#F36A3E"/>
</linearGradient>
<linearGradient id="paint3_linear_1_1067" x1="11.6671" y1="18.4593" x2="17.5114" y2="18.4593" gradientUnits="userSpaceOnUse">
<stop offset="0.452535" stop-color="#FFA588"/>
<stop offset="1" stop-color="#F36A3E"/>
</linearGradient>
</defs>
</svg>
