<svg width="68" height="84" viewBox="0 0 68 84" fill="none" xmlns="http://www.w3.org/2000/svg">
<path d="M10.5123 24L1.23248 33.2757C-3.12016 37.6331 4.42227 52.2452 18.0869 65.9105C31.7515 79.5758 46.3584 87.1232 50.7202 82.7657L60 73.4901L10.5123 24Z" fill="#F36A3E"/>
<path d="M60.0988 73.9333C64.4625 69.5734 56.9037 54.9523 43.2156 41.2762C29.5276 27.6001 14.8938 20.0478 10.5301 24.4077C6.16638 28.7676 13.7252 43.3887 27.4133 57.0648C41.1013 70.7409 55.7351 78.2932 60.0988 73.9333Z" fill="#F36A3E"/>
<path style="mix-blend-mode:multiply" d="M60.0988 73.9333C64.4625 69.5734 56.9037 54.9523 43.2156 41.2762C29.5276 27.6001 14.8938 20.0478 10.5301 24.4077C6.16638 28.7676 13.7252 43.3887 27.4133 57.0648C41.1013 70.7409 55.7351 78.2932 60.0988 73.9333Z" fill="url(#paint0_radial_1_777)"/>
<path d="M10.1839 5.57996L3.8425 11.7662C0.866491 14.6695 6.02582 24.4282 15.3618 33.5177C24.6977 42.6073 34.6919 47.6766 37.6586 44.7507L44 38.569L10.1839 5.57996Z" fill="#FFDBDB"/>
<path d="M43.5885 38.9022C46.5444 35.9489 41.4226 26.0433 32.1486 16.7774C22.8746 7.51146 12.9603 2.39409 10.0044 5.3474C7.04855 8.3007 12.1704 18.2063 21.4444 27.4722C30.7184 36.7382 40.6326 41.8555 43.5885 38.9022Z" fill="#FFDBDB"/>
<defs>
<radialGradient id="paint0_radial_1_777" cx="0" cy="0" r="1" gradientUnits="userSpaceOnUse" gradientTransform="translate(20.5272 35.9132) rotate(44.975) scale(36.8115 16.1971)">
<stop stop-color="#413655"/>
<stop offset="0.2" stop-color="#685F78" stop-opacity="0.79"/>
<stop offset="1" stop-color="white" stop-opacity="0"/>
</radialGradient>
</defs>
</svg>
