<svg width="43" height="42" viewBox="0 0 43 42" fill="none" xmlns="http://www.w3.org/2000/svg">
<circle cx="20.8455" cy="20.8455" r="20.8455" transform="matrix(-1 0 0 1 42.3818 0)" fill="#F36A3E"/>
<rect width="28.4256" height="28.4256" transform="matrix(-1 0 0 1 35.7493 6.63257)" fill="#F36A3E"/>
<path d="M18.8325 10.7792L28.0389 20.2236C28.2006 20.3895 28.2911 20.612 28.2911 20.8437C28.2911 21.0753 28.2006 21.2978 28.0389 21.4637L18.8325 30.9117C18.7572 30.989 18.6672 31.0505 18.5677 31.0925C18.4682 31.1345 18.3613 31.1561 18.2534 31.1561C18.1454 31.1561 18.0385 31.1345 17.939 31.0925C17.8396 31.0505 17.7495 30.989 17.6742 30.9117C17.5192 30.753 17.4325 30.5401 17.4325 30.3183C17.4325 30.0965 17.5192 29.8836 17.6742 29.7249L26.3316 20.8437L17.6742 11.9642C17.5198 11.8057 17.4333 11.5931 17.4333 11.3717C17.4333 11.1504 17.5198 10.9378 17.6742 10.7792C17.7495 10.7019 17.8396 10.6404 17.939 10.5984C18.0385 10.5564 18.1454 10.5348 18.2534 10.5348C18.3613 10.5348 18.4682 10.5564 18.5677 10.5984C18.6672 10.6404 18.7572 10.7019 18.8325 10.7792Z" fill="#FAFAFA"/>
</svg>
