<svg width="15" height="15" viewBox="0 0 15 15" fill="none" xmlns="http://www.w3.org/2000/svg">
<g id="ic:round-phone">
<path id="Vector" d="M12.0188 9.5376L10.4313 9.35635C10.2446 9.33442 10.0554 9.35509 9.87787 9.41679C9.70034 9.4785 9.53911 9.57963 9.40628 9.7126L8.25628 10.8626C6.48202 9.96024 5.03989 8.51811 4.13753 6.74385L5.29378 5.5876C5.56253 5.31885 5.69378 4.94385 5.65003 4.5626L5.46878 2.9876C5.43334 2.68271 5.28702 2.4015 5.05767 2.1975C4.82833 1.99351 4.53197 1.88098 4.22503 1.88135H3.14378C2.43753 1.88135 1.85003 2.46885 1.89378 3.1751C2.22503 8.5126 6.49378 12.7751 11.825 13.1063C12.5313 13.1501 13.1188 12.5626 13.1188 11.8563V10.7751C13.125 10.1438 12.65 9.6126 12.0188 9.5376Z" fill="#FAFAFA"/>
</g>
</svg>
