<svg width="42" height="42" viewBox="0 0 42 42" fill="none" xmlns="http://www.w3.org/2000/svg">
<path d="M23.5494 10.7792L14.343 20.2236C14.1813 20.3895 14.0908 20.612 14.0908 20.8437C14.0908 21.0753 14.1813 21.2978 14.343 21.4637L23.5494 30.9117C23.6247 30.989 23.7147 31.0505 23.8142 31.0925C23.9137 31.1345 24.0206 31.1561 24.1285 31.1561C24.2365 31.1561 24.3434 31.1345 24.4429 31.0925C24.5423 31.0505 24.6324 30.989 24.7077 30.9117C24.8627 30.753 24.9494 30.5401 24.9494 30.3183C24.9494 30.0965 24.8627 29.8836 24.7077 29.7249L16.0503 20.8437L24.7077 11.9642C24.8621 11.8057 24.9486 11.5931 24.9486 11.3717C24.9486 11.1504 24.8621 10.9378 24.7077 10.7792C24.6324 10.7019 24.5423 10.6404 24.4429 10.5984C24.3434 10.5564 24.2365 10.5348 24.1285 10.5348C24.0206 10.5348 23.9137 10.5564 23.8142 10.5984C23.7147 10.6404 23.6247 10.7019 23.5494 10.7792Z" fill="#F36A3E"/>
<circle cx="20.8455" cy="20.8455" r="20.1348" stroke="#F36A3E" stroke-width="1.42128"/>
</svg>
