<svg width="76" height="53" viewBox="0 0 76 53" fill="none" xmlns="http://www.w3.org/2000/svg">
<path d="M1.25623 0L11.728 2.43902C7.93366 16.2375 16.5286 30.1786 30.8899 33.5144C35.8239 34.649 40.9727 34.4331 45.7942 32.8895C50.6157 31.3459 54.9313 28.5318 58.2864 24.7434C60.8743 21.8072 62.7621 18.3229 63.8079 14.5526L74.3 16.9848C72.834 22.2852 70.1835 27.1843 66.5482 31.3132C61.8418 36.6279 55.7878 40.5759 49.024 42.7413C42.2602 44.9066 35.037 45.2091 28.1156 43.6169C7.99486 38.9223 -4.06125 19.3627 1.25623 0Z" fill="#E24A28"/>
<path d="M13.4347 9.87151L11.7279 2.43896C10.6471 6.33511 10.5444 10.4374 11.4287 14.3827L13.1083 21.8084C12.2283 17.8636 12.3404 13.7624 13.4347 9.87151Z" fill="#E24A28"/>
<path d="M66.5753 31.2995C61.8689 36.6142 55.8149 40.5623 49.0511 42.7276C42.2872 44.893 35.0641 45.1955 28.1427 43.6033C13.9242 40.2947 3.73804 29.5875 0.841309 16.7673L2.52087 24.1931C5.4176 37.0132 15.6037 47.7272 29.8222 51.029C36.7436 52.6227 43.9672 52.3209 50.7313 50.1555C57.4954 47.99 63.5494 44.0412 68.2549 38.7253C71.8892 34.5993 74.5375 29.7022 75.9999 24.4037L74.3271 16.9712C72.8611 22.2716 70.2106 27.1706 66.5753 31.2995Z" fill="#F36A3E"/>
</svg>
