<svg width="45" height="33" viewBox="0 0 45 33" fill="none" xmlns="http://www.w3.org/2000/svg">
<path d="M21.6835 0.20457C21.3569 0.3077 20.9616 0.462396 20.8241 0.531149C20.3428 0.788974 19.535 1.44213 19.2772 1.79449L19.0193 2.13826L10.8549 2.16404L2.69041 2.18982L2.20054 2.42187C1.60755 2.69688 1.03174 3.2555 0.74813 3.82272C0.567653 4.19227 0.54187 4.37274 0.54187 5.15481C0.54187 5.99704 0.559058 6.09158 0.799695 6.51269C1.12627 7.11428 1.76224 7.6815 2.35524 7.89635C2.81932 8.07683 2.96543 8.07683 10.8549 8.07683H18.8818L19.5522 8.74717C21.1937 10.3801 23.4625 10.7582 25.5767 9.7441C26.0665 9.50346 26.3931 9.26282 26.9002 8.75577L27.5791 8.07683H34.8756C42.0259 8.07683 42.1806 8.07683 42.6447 7.89635C43.2377 7.6815 43.8737 7.11428 44.2002 6.51269C44.4409 6.09158 44.4581 5.99704 44.4581 5.15481C44.4581 4.37274 44.4323 4.19227 44.2518 3.82272C43.9682 3.2555 43.3924 2.69688 42.7994 2.42187L42.3095 2.18982L34.8756 2.16404L27.4416 2.13826L27.201 1.80309C26.7369 1.14134 25.5337 0.385048 24.5368 0.118629C23.8149 -0.0704432 22.3968 -0.0274725 21.6835 0.20457ZM24.7688 1.88043C26.2041 2.58516 27.0549 4.16648 26.7971 5.65327C26.4533 7.63853 24.5884 9.02219 22.6976 8.7042C20.3686 8.30028 18.985 5.83375 19.9131 3.72818C20.3342 2.79142 21.1335 2.04372 22.0875 1.69996C22.4398 1.57964 22.732 1.54526 23.368 1.57104C24.0985 1.58823 24.2532 1.62261 24.7688 1.88043ZM18.1857 4.01179C18.074 4.41571 18.0482 5.4728 18.1427 6.07439L18.2115 6.52988H10.6142H3.01699L2.72479 6.33221C2.22633 5.99704 2.02866 5.6189 2.06304 5.06028C2.10601 4.47587 2.36383 4.08054 2.8537 3.85709C3.18887 3.7024 3.57561 3.6938 10.7431 3.6938H18.2716L18.1857 4.01179ZM42.1548 3.87428C42.6619 4.12351 42.8939 4.47587 42.9369 5.06028C42.9713 5.6189 42.7736 5.99704 42.2752 6.33221L41.9829 6.52988H35.1162H28.2495L28.3182 6.07439C28.4042 5.49858 28.4042 4.81105 28.3182 4.18367L28.2495 3.6938H35.0131C41.6993 3.6938 41.7853 3.6938 42.1548 3.87428Z" fill="url(#paint0_linear_1_1045)"/>
<path d="M11.594 11.1363C10.7775 11.3511 9.95248 11.8496 9.29073 12.5113L8.67195 13.1387L5.68118 13.1645L2.69041 13.1903L2.20054 13.4223C1.60755 13.6973 1.03174 14.256 0.74813 14.8232C0.567653 15.1927 0.54187 15.3732 0.54187 16.1553C0.54187 16.9975 0.559058 17.092 0.799695 17.5131C1.12627 18.1147 1.76224 18.682 2.35524 18.8968C2.79354 19.0687 3.0084 19.0773 5.76712 19.0773H8.70633L8.99853 19.4382C9.90092 20.5641 11.4822 21.3118 12.9604 21.3118C14.4215 21.3118 16.1403 20.5125 16.9309 19.464L17.2146 19.0859L29.6933 19.0773C42.0689 19.0773 42.1806 19.0773 42.6447 18.8968C43.2377 18.682 43.8737 18.1147 44.2002 17.5131C44.4409 17.092 44.4581 16.9975 44.4581 16.1553C44.4581 15.3732 44.4323 15.1927 44.2518 14.8232C43.9682 14.256 43.3924 13.6973 42.7994 13.4223L42.3095 13.1903L29.7878 13.1645L17.2747 13.1473L16.6387 12.5113C15.9598 11.8238 15.152 11.3511 14.2754 11.1277C13.6566 10.9644 12.2128 10.973 11.594 11.1363ZM14.1378 12.7262C16.7591 13.7059 17.4122 17.0147 15.3324 18.8452C14.5676 19.5242 13.3644 19.8679 12.3846 19.6875C9.53996 19.1632 8.37975 15.7943 10.322 13.6887C11.2674 12.666 12.8745 12.2621 14.1378 12.7262ZM7.91567 15.0122C7.82972 15.4162 7.82972 16.8772 7.90707 17.2467L7.97583 17.5303H5.49211C3.05996 17.5303 3.0084 17.5303 2.72479 17.3327C2.22633 16.9975 2.02866 16.6194 2.06304 16.0607C2.10601 15.4763 2.36383 15.081 2.8537 14.8575C3.17169 14.7114 3.45529 14.6943 5.59524 14.6943H7.98442L7.91567 15.0122ZM42.1548 14.8747C42.6619 15.124 42.8939 15.4763 42.9369 16.0607C42.9713 16.6194 42.7736 16.9975 42.2752 17.3327L41.9829 17.5303H29.9597H17.9451L18.0052 17.2897C18.0912 16.9975 18.0912 15.3474 18.0138 14.9693L17.9537 14.6943H29.8652C41.7681 14.6943 41.7853 14.6943 42.1548 14.8747Z" fill="url(#paint1_linear_1_1045)"/>
<path d="M30.7847 22.8589C29.6761 23.1425 28.6276 23.7956 28.069 24.5347L27.7854 24.9129L15.3067 24.9215C2.93105 24.9215 2.81932 24.9215 2.35524 25.102C1.76224 25.3168 1.12627 25.884 0.799695 26.4856C0.559058 26.9067 0.54187 27.0013 0.54187 27.8435C0.54187 28.6256 0.567653 28.806 0.74813 29.1756C1.03174 29.7428 1.60755 30.3014 2.20054 30.5764L2.69041 30.8085L15.2121 30.8343L27.7252 30.8515L28.3612 31.4788C29.4269 32.5359 30.5441 33 32.0223 33C33.5177 33 34.6607 32.5273 35.7092 31.4788L36.3366 30.8601L39.3188 30.8343L42.3095 30.8085L42.7994 30.5764C43.3924 30.3014 43.9682 29.7428 44.2518 29.1756C44.4323 28.806 44.4581 28.6256 44.4581 27.8435C44.4581 27.0013 44.4409 26.9067 44.2002 26.4856C43.8737 25.884 43.2377 25.3168 42.6447 25.102C42.2064 24.9301 41.9915 24.9215 39.2328 24.9215H36.2936L36.0014 24.5519C34.8068 23.0651 32.6583 22.369 30.7847 22.8589ZM32.7442 24.3285C34.8154 24.7582 36.0959 26.8981 35.4772 28.892C35.1592 29.9233 34.506 30.671 33.5091 31.1351C32.7872 31.4788 31.7129 31.5562 30.9996 31.3241C28.6362 30.5593 27.6823 27.7662 29.1089 25.7723C29.4956 25.2309 29.8136 24.9645 30.4668 24.6293C31.2402 24.2425 31.902 24.1566 32.7442 24.3285ZM26.9861 26.7434C26.9088 27.113 26.9088 28.6599 26.9861 29.0209L27.0549 29.3045H15.1262C3.68734 29.3045 3.18887 29.2959 2.8537 29.1412C2.36383 28.9178 2.10601 28.5224 2.06304 27.938C2.02866 27.3794 2.22633 27.0013 2.72479 26.6661L3.01699 26.4684H15.0316H27.0463L26.9861 26.7434ZM42.2752 26.6661C42.7736 27.0013 42.9713 27.3794 42.9369 27.938C42.8939 28.5224 42.6361 28.9178 42.1462 29.1412C41.8283 29.2873 41.5446 29.3045 39.4047 29.3045H37.0155L37.0843 28.9779C37.1702 28.5826 37.1702 27.1216 37.0929 26.7434L37.0327 26.4684H39.5078C41.94 26.4684 41.9915 26.4684 42.2752 26.6661Z" fill="url(#paint2_linear_1_1045)"/>
<defs>
<linearGradient id="paint0_linear_1_1045" x1="22.5" y1="10.3049" x2="22.5" y2="9.53674e-07" gradientUnits="userSpaceOnUse">
<stop offset="0.452535" stop-color="#FFA588"/>
<stop offset="1" stop-color="#F36A3E"/>
</linearGradient>
<linearGradient id="paint1_linear_1_1045" x1="22.5" y1="21.3118" x2="22.5" y2="11.0094" gradientUnits="userSpaceOnUse">
<stop offset="0.452535" stop-color="#FFA588"/>
<stop offset="1" stop-color="#F36A3E"/>
</linearGradient>
<linearGradient id="paint2_linear_1_1045" x1="22.5" y1="33" x2="22.5" y2="22.7035" gradientUnits="userSpaceOnUse">
<stop offset="0.452535" stop-color="#FFA588"/>
<stop offset="1" stop-color="#F36A3E"/>
</linearGradient>
</defs>
</svg>
